<svg width="21" height="20" viewBox="0 0 21 20" fill="none" xmlns="http://www.w3.org/2000/svg">
<path fill-rule="evenodd" clip-rule="evenodd" d="M10.5 7.25C9.80964 7.25 9.25 7.80964 9.25 8.5C9.25 8.91421 8.91421 9.25 8.5 9.25C8.08579 9.25 7.75 8.91421 7.75 8.5C7.75 6.98122 8.98122 5.75 10.5 5.75C12.0188 5.75 13.25 6.98122 13.25 8.5C13.25 9.66431 12.5267 10.6579 11.5077 11.0593C11.405 11.0997 11.3259 11.1569 11.2816 11.2066C11.2596 11.2312 11.2522 11.2463 11.25 11.2526C11.2486 11.6656 10.9133 12 10.5 12C10.0858 12 9.75 11.6642 9.75 11.25C9.75 10.3853 10.4465 9.86517 10.9579 9.6637C11.423 9.48047 11.75 9.02751 11.75 8.5C11.75 7.80964 11.1904 7.25 10.5 7.25Z" fill="#4A4A4A"/>
<path d="M10.5 14.5C11.0523 14.5 11.5 14.0523 11.5 13.5C11.5 12.9477 11.0523 12.5 10.5 12.5C9.94772 12.5 9.5 12.9477 9.5 13.5C9.5 14.0523 9.94772 14.5 10.5 14.5Z" fill="#4A4A4A"/>
<path fill-rule="evenodd" clip-rule="evenodd" d="M10.5 17C14.366 17 17.5 13.866 17.5 10C17.5 6.13401 14.366 3 10.5 3C6.63401 3 3.5 6.13401 3.5 10C3.5 13.866 6.63401 17 10.5 17ZM10.5 15.5C13.5376 15.5 16 13.0376 16 10C16 6.96243 13.5376 4.5 10.5 4.5C7.46243 4.5 5 6.96243 5 10C5 13.0376 7.46243 15.5 10.5 15.5Z" fill="#4A4A4A"/>
</svg>
